<?xml version="1.0" encoding="UTF-8"?>
<svg xmlns="http://www.w3.org/2000/svg" viewBox="0 0 64 64" width="800" height="800" preserveAspectRatio="xMidYMid meet">
  <g fill="none" stroke="#00040D" stroke-width="2" stroke-linecap="round" stroke-linejoin="round" opacity="0.18">
    <path d="M32 6v6" />
    <path d="M20 20c0 6-4 10-4 10h28s-4-4-4-10" />
    <path d="M12 44h40" />
    <path d="M16 20c0 0 6 0 8 0s8 0 8 0 6 0 8 0c2 0 8 0 8 0" />
    <path d="M20 30c0 4 4 8 4 8s4-4 4-8" />
    <path d="M44 30c0 4-4 8-4 8s-4-4-4-8" />
    <circle cx="20" cy="34" r="4" />
    <circle cx="44" cy="34" r="4" />
  </g>
</svg>
