<?xml version="1.0" encoding="UTF-8" standalone="no"?>
<!-- Created with Inkscape (http://www.inkscape.org/) -->

<svg
   version="1.1"
   id="svg1"
   width="128"
   height="108.38516"
   viewBox="0 0 128 108.38516"
   sodipodi:docname="logo-andrade-flores-2.svg"
   inkscape:version="1.3.2 (091e20e, 2023-11-25, custom)"
   xmlns:inkscape="http://www.inkscape.org/namespaces/inkscape"
   xmlns:sodipodi="http://sodipodi.sourceforge.net/DTD/sodipodi-0.dtd"
   xmlns="http://www.w3.org/2000/svg"
   xmlns:svg="http://www.w3.org/2000/svg">
  <defs
     id="defs1" />
  <sodipodi:namedview
     id="namedview1"
     pagecolor="#ffffff"
     bordercolor="#cccccc"
     borderopacity="1"
     inkscape:showpageshadow="0"
     inkscape:pageopacity="1"
     inkscape:pagecheckerboard="0"
     inkscape:deskcolor="#d1d1d1"
     showgrid="false"
     showguides="true"
     inkscape:zoom="1.0289025"
     inkscape:cx="444.64855"
     inkscape:cy="531.14848"
     inkscape:window-width="1920"
     inkscape:window-height="991"
     inkscape:window-x="-9"
     inkscape:window-y="-9"
     inkscape:window-maximized="1"
     inkscape:current-layer="layer5">
    <sodipodi:guide
       position="-408.68887,845.56562"
       orientation="1,0"
       id="guide1"
       inkscape:locked="false" />
    <sodipodi:guide
       position="-341.97288,986.00315"
       orientation="0,-1"
       id="guide6"
       inkscape:locked="false" />
    <sodipodi:guide
       position="-383.27059,758.85391"
       orientation="1,0"
       id="guide42"
       inkscape:locked="false" />
  </sodipodi:namedview>
  <g
     inkscape:groupmode="layer"
     id="layer5"
     inkscape:label="titulo"
     style="display:inline"
     transform="translate(-659.01062,-406.69818)">
    <g
       id="g200"
       transform="matrix(0.40680762,0,0,0.40680762,322.47064,334.03091)">
      <g
         id="g176"
         transform="matrix(1.7455096,0,0,1.7455096,501.46797,-5.009355)"
         style="display:inline;fill:#ffffff;fill-opacity:1"
         inkscape:label="louro-esquerdo">
        <g
           inkscape:groupmode="layer"
           id="g175"
           inkscape:label="louro"
           style="display:inline;fill:#ffffff;fill-opacity:1">
          <path
             style="opacity:1;fill:#ffffff;fill-opacity:1;stroke:#ffffff;stroke-width:0;stroke-linecap:square;stroke-linejoin:round;stroke-miterlimit:3.7;stroke-dasharray:none;stroke-opacity:1"
             d="m 253.45882,239.38224 c 4.91729,-7.1676 -4.93337,-17.90406 -7.64157,-18.37998 -2.43545,4.49756 -4.66551,11.85286 7.64157,18.37998 z"
             id="path160"
             sodipodi:nodetypes="ccc" />
          <path
             style="opacity:1;fill:#ffffff;fill-opacity:1;stroke:#ffffff;stroke-width:0;stroke-linecap:square;stroke-linejoin:round;stroke-miterlimit:3.7;stroke-dasharray:none;stroke-opacity:1"
             d="m 231.14519,243.78088 c 6.48105,-8.57587 19.0359,-4.45492 21.17301,-2.72472 -1.18256,5.63414 -5.42417,11.5166 -21.17301,2.72472 z"
             id="path161"
             sodipodi:nodetypes="ccc" />
          <path
             style="opacity:1;fill:#000000;fill-opacity:1;stroke:#fff8f8;stroke-width:0;stroke-linecap:square;stroke-linejoin:round;stroke-miterlimit:3.7;stroke-dasharray:none;stroke-opacity:1"
             d="m 214.46867,228.43311 c 8.06052,-6.91266 19.74622,-0.0528 21.40782,2.1108 -2.36027,5.22798 -8.29785,9.9749 -21.40782,-2.1108 z"
             id="path162"
             sodipodi:nodetypes="ccc"
             inkscape:transform-center-x="10.246294"
             inkscape:transform-center-y="0.16272798" />
          <path
             style="opacity:1;fill:#000000;fill-opacity:1;stroke:#fff8f8;stroke-width:0;stroke-linecap:square;stroke-linejoin:round;stroke-miterlimit:3.7;stroke-dasharray:none;stroke-opacity:1"
             d="m 201.79798,211.33739 c 9.01934,-5.08509 18.26812,4.04282 19.49636,6.34366 -3.20439,4.47903 -8.92905,7.15773 -19.49636,-6.34366 z"
             id="path163"
             sodipodi:nodetypes="ccc"
             inkscape:transform-center-x="9.7308912"
             inkscape:transform-center-y="-1.5382945" />
          <path
             style="opacity:1;fill:#000000;fill-opacity:1;stroke:#fff8f8;stroke-width:0;stroke-linecap:square;stroke-linejoin:round;stroke-miterlimit:3.7;stroke-dasharray:none;stroke-opacity:1"
             d="m 192.83424,192.4147 c 9.53748,-2.7129 16.67548,7.30487 17.34569,9.58218 -7.11524,1.45627 -11.66021,3.61675 -17.34569,-9.58218 z"
             id="path164"
             sodipodi:nodetypes="ccc"
             inkscape:transform-center-x="8.5623351"
             inkscape:transform-center-y="-3.3943904" />
          <path
             style="opacity:1;fill:#000000;fill-opacity:1;stroke:#fff8f8;stroke-width:0;stroke-linecap:square;stroke-linejoin:round;stroke-miterlimit:3.7;stroke-dasharray:none;stroke-opacity:1"
             d="m 236.34642,229.40334 c 6.07083,-5.4519 -0.58515,-17.3804 -2.9582,-18.40551 -3.21466,3.56305 -6.86839,9.77305 2.9582,18.40551 z"
             id="path165"
             sodipodi:nodetypes="ccc"
             inkscape:transform-center-x="1.8052018"
             inkscape:transform-center-y="-9.1504668" />
          <path
             style="opacity:1;fill:#000000;fill-opacity:1;stroke:#fff8f8;stroke-width:0;stroke-linecap:square;stroke-linejoin:round;stroke-miterlimit:3.7;stroke-dasharray:none;stroke-opacity:1"
             d="m 222.74316,216.99565 c 6.54824,-7.54696 2.00652,-17.2741 -0.18766,-18.64077 -3.70887,3.04527 -8.24563,8.64273 0.18766,18.64077 z"
             id="path166"
             sodipodi:nodetypes="ccc"
             inkscape:transform-center-x="0.50627414"
             inkscape:transform-center-y="-9.2481768" />
          <path
             style="opacity:1;fill:#000000;fill-opacity:1;stroke:#fff8f8;stroke-width:0;stroke-linecap:square;stroke-linejoin:round;stroke-miterlimit:3.7;stroke-dasharray:none;stroke-opacity:1"
             d="m 210.7751,201.48099 c 8.08292,-2.30629 6.14169,-14.16259 4.92904,-16.44551 -4.73606,0.77405 -8.1764,9.49981 -4.92904,16.44551 z"
             id="path167"
             sodipodi:nodetypes="ccc"
             inkscape:transform-center-x="-4.5701267"
             inkscape:transform-center-y="-7.9597668" />
          <path
             style="opacity:1;fill:#000000;fill-opacity:1;stroke:#fff8f8;stroke-width:0;stroke-linecap:square;stroke-linejoin:round;stroke-miterlimit:3.7;stroke-dasharray:none;stroke-opacity:1"
             d="m 202.97963,183.25136 c 7.21951,-1.30727 8.07284,-9.65873 8.83903,-14.62033 -4.79576,-0.17349 -12.0982,6.77284 -8.83903,14.62033 z"
             id="path168"
             sodipodi:nodetypes="ccc"
             inkscape:transform-center-x="-4.4576304"
             inkscape:transform-center-y="-7.4614792" />
          <path
             style="opacity:1;fill:#000000;fill-opacity:1;stroke:#fff8f8;stroke-width:0;stroke-linecap:square;stroke-linejoin:round;stroke-miterlimit:3.7;stroke-dasharray:none;stroke-opacity:1"
             d="m 199.11719,163.37478 c 6.71233,-0.2018 10.01904,-7.69083 10.51007,-12.12375 -4.31377,-0.82115 -12.36529,4.47926 -10.51007,12.12375 z"
             id="path169"
             sodipodi:nodetypes="ccc"
             inkscape:transform-center-x="-5.2847135"
             inkscape:transform-center-y="-6.21176" />
          <path
             style="opacity:1;fill:#000000;fill-opacity:1;stroke:#fff8f8;stroke-width:0;stroke-linecap:square;stroke-linejoin:round;stroke-miterlimit:3.7;stroke-dasharray:none;stroke-opacity:1"
             d="m 188.25122,170.07686 c 9.63595,-0.23387 13.91085,11.21987 13.98641,13.58548 -7.05034,-0.3734 -11.85374,0.57553 -13.98641,-13.58548 z"
             id="path170"
             sodipodi:nodetypes="ccc"
             inkscape:transform-center-x="6.9826366"
             inkscape:transform-center-y="-6.7167792" />
          <path
             style="opacity:1;fill:#000000;fill-opacity:1;stroke:#fff8f8;stroke-width:0;stroke-linecap:square;stroke-linejoin:round;stroke-miterlimit:3.7;stroke-dasharray:none;stroke-opacity:1"
             d="m 198.69078,163.58686 c -8.17206,1.70283 -11.26777,-7.88969 -12.03893,-12.86407 4.45409,-1.12553 12.01436,4.64796 12.03893,12.86407 z"
             id="path171"
             sodipodi:nodetypes="ccc"
             inkscape:transform-center-x="5.9806842"
             inkscape:transform-center-y="-6.5554258" />
          <path
             style="opacity:1;fill:#000000;fill-opacity:1;stroke:#fff8f8;stroke-width:0;stroke-linecap:square;stroke-linejoin:round;stroke-miterlimit:3.7;stroke-dasharray:none;stroke-opacity:1"
             d="m 199.88866,142.44309 c 6.23793,0.58997 10.14539,-6.18749 11.10062,-10.37024 -3.90152,-1.28862 -11.9552,2.84193 -11.10062,10.37024 z"
             id="path172"
             sodipodi:nodetypes="ccc"
             inkscape:transform-center-x="-5.6848862"
             inkscape:transform-center-y="-5.3676258" />
          <path
             style="opacity:1;fill:#000000;fill-opacity:1;stroke:#fff8f8;stroke-width:0;stroke-linecap:square;stroke-linejoin:round;stroke-miterlimit:3.7;stroke-dasharray:none;stroke-opacity:1"
             d="m 198.75095,142.61639 c -7.38684,-1.25565 -6.93085,-10.925 -5.99561,-15.65496 4.08888,0.50709 8.5867,8.26824 5.99561,15.65496 z"
             id="path173"
             sodipodi:nodetypes="ccc"
             inkscape:transform-center-x="2.7911943"
             inkscape:transform-center-y="-7.951887" />
          <path
             style="opacity:1;fill:#000000;fill-opacity:1;stroke:#fff8f8;stroke-width:0;stroke-linecap:square;stroke-linejoin:round;stroke-miterlimit:3.7;stroke-dasharray:none;stroke-opacity:1"
             d="m 201.90567,129.34293 c 6.68318,-2.854 7.90436,-12.13793 6.55377,-16.91254 -4.99171,3.2084 -9.17044,9.99956 -6.55377,16.91254 z"
             id="path174"
             sodipodi:nodetypes="ccc"
             inkscape:transform-center-x="-2.2594424"
             inkscape:transform-center-y="-8.5126942" />
          <path
             style="opacity:1;fill:#000000;fill-opacity:1;stroke:#fff8f8;stroke-width:0;stroke-linecap:square;stroke-linejoin:round;stroke-miterlimit:3.7;stroke-dasharray:none;stroke-opacity:1"
             d="m 302.07884,255.15452 -3.76942,2.52679 C 187.38896,232.5523 194.84437,154.54677 201.4157,129.66538 c -10.86285,54.64335 10.96005,106.93759 100.66314,125.48914 z"
             id="path175"
             sodipodi:nodetypes="cccc" />
      </g>
      </g>
      <g
         id="g192"
         transform="matrix(-1.7455096,0,0,1.7455096,1467.7182,-4.7285459)"
         style="display:inline;fill:#ffffff;fill-opacity:1"
         inkscape:label="louro-direito">
        <g
           inkscape:groupmode="layer"
           id="g191"
           inkscape:label="louro"
           style="display:inline;fill:#ffffff;fill-opacity:1">
          <path
             style="opacity:1;fill:#ffffff;fill-opacity:1;stroke:#ffffff;stroke-width:0;stroke-linecap:square;stroke-linejoin:round;stroke-miterlimit:3.7;stroke-dasharray:none;stroke-opacity:1"
             d="m 253.45882,239.38224 c 4.91729,-7.1676 -4.93337,-17.90406 -7.64157,-18.37998 -2.43545,4.49756 -4.66551,11.85286 7.64157,18.37998 z"
             id="path176"
             sodipodi:nodetypes="ccc" />
          <path
             style="opacity:1;fill:#000000;fill-opacity:1;stroke:#fff8f8;stroke-width:0;stroke-linecap:square;stroke-linejoin:round;stroke-miterlimit:3.7;stroke-dasharray:none;stroke-opacity:1"
             d="m 231.14519,243.78088 c 6.48105,-8.57587 19.0359,-4.45492 21.17301,-2.72472 -1.18256,5.63414 -5.42417,11.5166 -21.17301,2.72472 z"
             id="path177"
             sodipodi:nodetypes="ccc" />
          <path
             style="opacity:1;fill:#000000;fill-opacity:1;stroke:#fff8f8;stroke-width:0;stroke-linecap:square;stroke-linejoin:round;stroke-miterlimit:3.7;stroke-dasharray:none;stroke-opacity:1"
             d="m 214.46867,228.43311 c 8.06052,-6.91266 19.74622,-0.0528 21.40782,2.1108 -2.36027,5.22798 -8.29785,9.9749 -21.40782,-2.1108 z"
             id="path178"
             sodipodi:nodetypes="ccc"
             inkscape:transform-center-x="10.246294"
             inkscape:transform-center-y="0.16272798" />
          <path
             style="opacity:1;fill:#000000;fill-opacity:1;stroke:#fff8f8;stroke-width:0;stroke-linecap:square;stroke-linejoin:round;stroke-miterlimit:3.7;stroke-dasharray:none;stroke-opacity:1"
             d="m 201.79798,211.33739 c 9.01934,-5.08509 18.26812,4.04282 19.49636,6.34366 -3.20439,4.47903 -8.92905,7.15773 -19.49636,-6.34366 z"
             id="path179"
             sodipodi:nodetypes="ccc"
             inkscape:transform-center-x="9.7308912"
             inkscape:transform-center-y="-1.5382945" />
          <path
             style="opacity:1;fill:#000000;fill-opacity:1;stroke:#fff8f8;stroke-width:0;stroke-linecap:square;stroke-linejoin:round;stroke-miterlimit:3.7;stroke-dasharray:none;stroke-opacity:1"
             d="m 192.83424,192.4147 c 9.53748,-2.7129 16.67548,7.30487 17.34569,9.58218 -7.11524,1.45627 -11.66021,3.61675 -17.34569,-9.58218 z"
             id="path180"
             sodipodi:nodetypes="ccc"
             inkscape:transform-center-x="8.5623351"
             inkscape:transform-center-y="-3.3943904" />
          <path
             style="opacity:1;fill:#000000;fill-opacity:1;stroke:#fff8f8;stroke-width:0;stroke-linecap:square;stroke-linejoin:round;stroke-miterlimit:3.7;stroke-dasharray:none;stroke-opacity:1"
             d="m 236.34642,229.40334 c 6.07083,-5.4519 -0.58515,-17.3804 -2.9582,-18.40551 -3.21466,3.56305 -6.86839,9.77305 2.9582,18.40551 z"
             id="path181"
             sodipodi:nodetypes="ccc"
             inkscape:transform-center-x="1.8052018"
             inkscape:transform-center-y="-9.1504668" />
          <path
             style="opacity:1;fill:#000000;fill-opacity:1;stroke:#fff8f8;stroke-width:0;stroke-linecap:square;stroke-linejoin:round;stroke-miterlimit:3.7;stroke-dasharray:none;stroke-opacity:1"
             d="m 222.74316,216.99565 c 6.54824,-7.54696 2.00652,-17.2741 -0.18766,-18.64077 -3.70887,3.04527 -8.24563,8.64273 0.18766,18.64077 z"
             id="path182"
             sodipodi:nodetypes="ccc"
             inkscape:transform-center-x="0.50627414"
             inkscape:transform-center-y="-9.2481768" />
          <path
             style="opacity:1;fill:#000000;fill-opacity:1;stroke:#fff8f8;stroke-width:0;stroke-linecap:square;stroke-linejoin:round;stroke-miterlimit:3.7;stroke-dasharray:none;stroke-opacity:1"
             d="m 210.7751,201.48099 c 8.08292,-2.30629 6.14169,-14.16259 4.92904,-16.44551 -4.73606,0.77405 -8.1764,9.49981 -4.92904,16.44551 z"
             id="path183"
             sodipodi:nodetypes="ccc"
             inkscape:transform-center-x="-4.5701267"
             inkscape:transform-center-y="-7.9597668" />
          <path
             style="opacity:1;fill:#000000;fill-opacity:1;stroke:#fff8f8;stroke-width:0;stroke-linecap:square;stroke-linejoin:round;stroke-miterlimit:3.7;stroke-dasharray:none;stroke-opacity:1"
             d="m 202.97963,183.25136 c 7.21951,-1.30727 8.07284,-9.65873 8.83903,-14.62033 -4.79576,-0.17349 -12.0982,6.77284 -8.83903,14.62033 z"
             id="path184"
             sodipodi:nodetypes="ccc"
             inkscape:transform-center-x="-4.4576304"
             inkscape:transform-center-y="-7.4614792" />
          <path
             style="opacity:1;fill:#000000;fill-opacity:1;stroke:#fff8f8;stroke-width:0;stroke-linecap:square;stroke-linejoin:round;stroke-miterlimit:3.7;stroke-dasharray:none;stroke-opacity:1"
             d="m 199.11719,163.37478 c 6.71233,-0.2018 10.01904,-7.69083 10.51007,-12.12375 -4.31377,-0.82115 -12.36529,4.47926 -10.51007,12.12375 z"
             id="path185"
             sodipodi:nodetypes="ccc"
             inkscape:transform-center-x="-5.2847135"
             inkscape:transform-center-y="-6.21176" />
          <path
             style="opacity:1;fill:#000000;fill-opacity:1;stroke:#fff8f8;stroke-width:0;stroke-linecap:square;stroke-linejoin:round;stroke-miterlimit:3.7;stroke-dasharray:none;stroke-opacity:1"
             d="m 188.25122,170.07686 c 9.63595,-0.23387 13.91085,11.21987 13.98641,13.58548 -7.05034,-0.3734 -11.85374,0.57553 -13.98641,-13.58548 z"
             id="path186"
             sodipodi:nodetypes="ccc"
             inkscape:transform-center-x="6.9826366"
             inkscape:transform-center-y="-6.7167792" />
          <path
             style="opacity:1;fill:#000000;fill-opacity:1;stroke:#fff8f8;stroke-width:0;stroke-linecap:square;stroke-linejoin:round;stroke-miterlimit:3.7;stroke-dasharray:none;stroke-opacity:1"
             d="m 198.69078,163.58686 c -8.17206,1.70283 -11.26777,-7.88969 -12.03893,-12.86407 4.45409,-1.12553 12.01436,4.64796 12.03893,12.86407 z"
             id="path187"
             sodipodi:nodetypes="ccc"
             inkscape:transform-center-x="5.9806842"
             inkscape:transform-center-y="-6.5554258" />
          <path
             style="opacity:1;fill:#000000;fill-opacity:1;stroke:#fff8f8;stroke-width:0;stroke-linecap:square;stroke-linejoin:round;stroke-miterlimit:3.7;stroke-dasharray:none;stroke-opacity:1"
             d="m 199.88866,142.44309 c 6.23793,0.58997 10.14539,-6.18749 11.10062,-10.37024 -3.90152,-1.28862 -11.9552,2.84193 -11.10062,10.37024 z"
             id="path188"
             sodipodi:nodetypes="ccc"
             inkscape:transform-center-x="-5.6848862"
             inkscape:transform-center-y="-5.3676258" />
          <path
             style="opacity:1;fill:#000000;fill-opacity:1;stroke:#fff8f8;stroke-width:0;stroke-linecap:square;stroke-linejoin:round;stroke-miterlimit:3.7;stroke-dasharray:none;stroke-opacity:1"
             d="m 198.75095,142.61639 c -7.38684,-1.25565 -6.93085,-10.925 -5.99561,-15.65496 4.08888,0.50709 8.5867,8.26824 5.99561,15.65496 z"
             id="path189"
             sodipodi:nodetypes="ccc"
             inkscape:transform-center-x="2.7911943"
             inkscape:transform-center-y="-7.951887" />
          <path
             style="opacity:1;fill:#000000;fill-opacity:1;stroke:#fff8f8;stroke-width:0;stroke-linecap:square;stroke-linejoin:round;stroke-miterlimit:3.7;stroke-dasharray:none;stroke-opacity:1"
             d="m 201.90567,129.34293 c 6.68318,-2.854 7.90436,-12.13793 6.55377,-16.91254 -4.99171,3.2084 -9.17044,9.99956 -6.55377,16.91254 z"
             id="path190"
             sodipodi:nodetypes="ccc"
             inkscape:transform-center-x="-2.2594424"
             inkscape:transform-center-y="-8.5126942" />
          <path
             style="opacity:1;fill:#000000;fill-opacity:1;stroke:#fff8f8;stroke-width:0;stroke-linecap:square;stroke-linejoin:round;stroke-miterlimit:3.7;stroke-dasharray:none;stroke-opacity:1"
             d="m 302.07884,255.15452 -3.76942,2.52679 C 187.38896,232.5523 194.84437,154.54677 201.4157,129.66538 c -10.86285,54.64335 10.96005,106.93759 100.66314,125.48914 z"
             id="path191"
             sodipodi:nodetypes="cccc" />
      </g>
      </g>
      <g
         id="g199"
         style="display:inline;stroke:#ffffff;stroke-opacity:1"
         transform="matrix(1.7455096,0,0,1.7455096,501.86584,9.1476594)">
        <g
           id="g194"
           style="stroke:#000000;stroke-opacity:1">
          <path
             style="fill:#ffffff;fill-opacity:1;stroke:#ffffff;stroke-width:1.4211;stroke-linecap:square;stroke-linejoin:round;stroke-miterlimit:3.7;stroke-dasharray:none;stroke-opacity:1"
             id="path192"
             sodipodi:type="arc"
             sodipodi:cx="305.49155"
             sodipodi:cy="184.51997"
             sodipodi:rx="17.922716"
             sodipodi:ry="12.283543"
             sodipodi:start="0"
             sodipodi:end="3.1471965"
             sodipodi:arc-type="slice"
             d="m 323.41426,184.51997 a 17.922716,12.283543 0 0 1 -8.99036,10.64932 17.922716,12.283543 0 0 1 -17.95164,-0.0345 17.922716,12.283543 0 0 1 -8.90315,-10.68367 l 17.92244,0.0688 z" />
          <path
             style="fill:none;stroke:#ffffff;stroke-width:1.47928;stroke-linecap:square;stroke-miterlimit:3.7;stroke-dasharray:none;stroke-opacity:1"
             d="m 287.86303,183.68178 c 19.03639,-60.27529 19.03639,-60.27529 19.03639,-60.27529 v 0 0 c 16.22034,60.49528 16.22034,60.49528 16.22034,60.49528 v 0 0"
             id="path193" />
          <path
             style="fill:#ffffff;fill-opacity:1;stroke:#ffffff;stroke-width:1.421;stroke-linecap:square;stroke-linejoin:round;stroke-miterlimit:3.7;stroke-dasharray:none;stroke-opacity:1"
             d="m 306.63834,184.39834 c 0.22751,-59.83561 0.22751,-59.83561 0.22751,-59.83561"
             id="path194" />
        </g>
        <g
           id="g197"
           transform="translate(-59.608101,-0.11375595)"
           style="stroke:#ffffff;stroke-opacity:1">
          <path
             style="fill:#ffffff;fill-opacity:1;stroke:#ffffff;stroke-width:1.4211;stroke-linecap:square;stroke-linejoin:round;stroke-miterlimit:3.7;stroke-dasharray:none;stroke-opacity:1"
             id="path195"
             sodipodi:type="arc"
             sodipodi:cx="305.49155"
             sodipodi:cy="184.51997"
             sodipodi:rx="17.922716"
             sodipodi:ry="12.283543"
             sodipodi:start="0"
             sodipodi:end="3.1471965"
             sodipodi:arc-type="slice"
             d="m 323.41426,184.51997 a 17.922716,12.283543 0 0 1 -8.99036,10.64932 17.922716,12.283543 0 0 1 -17.95164,-0.0345 17.922716,12.283543 0 0 1 -8.90315,-10.68367 l 17.92244,0.0688 z" />
          <path
             style="fill:none;stroke:#ffffff;stroke-width:1.47928;stroke-linecap:square;stroke-miterlimit:3.7;stroke-dasharray:none;stroke-opacity:1"
             d="m 287.86303,183.68178 c 19.03639,-60.27529 19.03639,-60.27529 19.03639,-60.27529 v 0 0 c 16.22034,60.49528 16.22034,60.49528 16.22034,60.49528 v 0 0"
             id="path196" />
          <path
             style="fill:#ffffff;fill-opacity:1;stroke:#ffffff;stroke-width:1.421;stroke-linecap:square;stroke-linejoin:round;stroke-miterlimit:3.7;stroke-dasharray:none;stroke-opacity:1"
             d="m 306.63834,184.39834 c 0.22751,-59.83561 0.22751,-59.83561 0.22751,-59.83561"
             id="path197" />
        </g>
        <path
           style="fill:#ffffff;fill-opacity:1;stroke:#ffffff;stroke-width:2.76915;stroke-linecap:butt;stroke-linejoin:round;stroke-miterlimit:3.7;stroke-dasharray:none;stroke-opacity:1"
           d="m 307.93829,121.37751 c -61.43024,-0.11365 -61.43024,-0.11365 -61.43024,-0.11365"
           id="path198" />
        <path
           id="path199"
           style="fill:#ffffff;fill-opacity:1;stroke:#ffffff;stroke-width:3.1184;stroke-linecap:square;stroke-linejoin:round;stroke-miterlimit:3.7;stroke-opacity:1"
           d="m 276.09959,98.654307 h 0.0852 l 5.63063,110.123833 c -5.79857,5.41522 -6.03119,5.46518 -11.02473,0 z"
          
           sodipodi:nodetypes="ccccc" />
      </g>
    </g>
  </g>
</svg>
